<svg id="Layer_1" data-name="Layer 1" xmlns="http://www.w3.org/2000/svg" viewBox="0 0 927.72 594.32"><defs><style>.cls-1{fill:#fff;}</style></defs><path class="cls-1" d="M167.54,655.32V61h927.72V655.32Zm699.69-272-7.72-12.71c-58.48,5.75-89.66,58.62-138.15,88.19,1.73-9.8,1.14-18.6,4.79-25,11.09-19.3,8.35-38.52-10.1-46.08-10.76-4.41-30.15,4-41.84,12.09C656,412.53,641,429.9,624.62,445.29l-6.39-6.74q5.19-9.14,10.37-18.25C648,386,642.19,371.92,603,367.35c-24.81-2.89-50.39-1.81-75.34.49-8.32.76-16.65,10-23.45,16.83C490,399.08,476.75,414.49,459,434c22.81-105.26,44.1-200.1,63.12-295.4,2.57-12.85-2.29-36.49-10.62-40.4-21.13-9.94-20.9,13-28.13,26.05-19.9,36-43.64,69.06-85.69,85.62,0-38.49,2.41-71.89-1.21-104.63-1.4-12.66-15.09-31.79-25.65-33.61-13.1-2.26-32.6,6.78-42.53,17.35C305,113.72,303,155.85,329,185.73c26.74,30.69,22.13,58.48,6.79,88.36-18.56,36.18-39.68,71.06-56.55,100.93l-49.4-8.72c-1.4,9.75-7.35,22.24-3.42,28.78,19.57,32.56,3.95,53-20.12,72.67-6,4.9-9.76,12.59-16.45,21.54,41.16,31.31,54.36-12.7,76.72-21.07,25.61,10.21,51.8,14.94,77.39,21.86,40.08,10.84,69.21-15.2,100.92-30C477,445.2,509.11,428,536.24,405.69c22.29-18.31,40.31-19.12,63.94-8.14-9.86,19.26-21.15,35.67-26.42,53.84-2.91,10,4.09,33,7,33.05,33.93.68,68.47,40.24,102.23-3.93,29.66,47.37,49.49,10.68,70.92-7.44,36.52,57.36,78.27,22.7,117,9.13,31.25,33.24,50.17,37,86.82,15.38,27-15.9,52.88-33.76,79.18-50.88,12.37-8.05,24.55-16.4,36.81-24.61l-10.86-11.67c-55.63,11.23-93.3,66.51-151.34,71.83l-14.92-18.71c10.94-5,25.56-7.07,32-15.48C942,430.59,951.7,410,961,389.84c.72-1.58-18.2-16.36-20.71-14.59-17.88,12.52-39.83,24.72-49,42.85C877.48,445.1,860,463,831.91,471c-10.73,3.1-22.1,4-33.18,5.84,2.73-11.9,2.28-26.13,8.9-35.16,11.17-15.25,26.8-27.23,40.6-40.52C854.5,395.17,860.89,389.27,867.23,383.31Z" transform="translate(-167.54 -61)"/><path d="M867.23,383.31c-6.34,6-12.73,11.86-19,17.89-13.8,13.29-29.43,25.27-40.6,40.52-6.62,9-6.17,23.26-8.9,35.16,11.08-1.88,22.45-2.74,33.18-5.84C860,463,877.48,445.1,891.21,418.1c9.22-18.13,31.17-30.33,49-42.85,2.51-1.77,21.43,13,20.71,14.59-9.27,20.19-19,40.75-32.41,58.22-6.47,8.41-21.09,10.52-32,15.48l14.92,18.71c58-5.32,95.71-60.6,151.34-71.83l10.86,11.67c-12.26,8.21-24.44,16.56-36.81,24.61-26.3,17.12-52.17,35-79.18,50.88-36.65,21.58-55.57,17.86-86.82-15.38-38.69,13.57-80.44,48.23-117-9.13-21.43,18.12-41.26,54.81-70.92,7.44-33.76,44.17-68.3,4.61-102.23,3.93-2.88-.05-9.88-23-7-33.05,5.27-18.17,16.56-34.58,26.42-53.84-23.63-11-41.65-10.17-63.94,8.14C509.11,428,477,445.2,444.9,460.12c-31.71,14.76-60.84,40.8-100.92,30-25.59-6.92-51.78-11.65-77.39-21.86-22.36,8.37-35.56,52.38-76.72,21.07,6.69-9,10.44-16.64,16.45-21.54,24.07-19.64,39.69-40.11,20.12-72.67-3.93-6.54,2-19,3.42-28.78l49.4,8.72c16.87-29.87,38-64.75,56.55-100.93,15.34-29.88,19.95-57.67-6.79-88.36-26-29.88-24-72-.71-96.77,9.93-10.57,29.43-19.61,42.53-17.35,10.56,1.82,24.25,21,25.65,33.61,3.62,32.74,1.21,66.14,1.21,104.63,42.05-16.56,65.79-49.65,85.69-85.62,7.23-13.08,7-36,28.13-26,8.33,3.91,13.19,27.55,10.62,40.4-19,95.3-40.31,190.14-63.12,295.4,17.73-19.49,31-34.9,45.19-49.31,6.8-6.86,15.13-16.07,23.45-16.83,25-2.3,50.53-3.38,75.34-.49,39.19,4.57,45,18.66,25.6,52.95q-5.16,9.13-10.37,18.25l6.39,6.74C641,429.9,656,412.53,674.21,399.84c11.69-8.13,31.08-16.5,41.84-12.09,18.45,7.56,21.19,26.78,10.1,46.08-3.65,6.36-3.06,15.16-4.79,25,48.49-29.57,79.67-82.44,138.15-88.19ZM475.6,204.71l-88.45,43.15c-27.13,51.48-54.94,104.22-83,157.52,25,8.9,47.06,19.63,70.32,23.91,12.25,2.26,33.41-2.49,38.86-11.32C453.81,352.39,465.27,278.11,475.6,204.71ZM365.19,104.06c-24.29,24.79-30.19,49.36,0,79.6Z" transform="translate(-167.54 -61)"/><path class="cls-1" d="M475.6,204.71c-10.33,73.4-21.79,147.68-62.31,213.26-5.45,8.83-26.61,13.58-38.86,11.32-23.26-4.28-45.34-15-70.32-23.91,28.1-53.3,55.91-106,83-157.52Z" transform="translate(-167.54 -61)"/><path class="cls-1" d="M365.19,104.06v79.6C335,153.42,340.9,128.85,365.19,104.06Z" transform="translate(-167.54 -61)"/></svg>