<svg id="Layer_1" data-name="Layer 1" xmlns="http://www.w3.org/2000/svg" viewBox="0 0 1341.06 320.8"><defs><style>.cls-1{fill:#fff;}</style></defs><path class="cls-1" d="M3.94,537.72V216.92H1345v320.8ZM1025,367.56c5,19.77-4.62,31.21-15.78,42.26-2.53,2.49-3.5,6.56-5.19,9.91,4.35-.39,10.7.9,12.71-1.48,7.78-9.23,16.48-18.79,20.51-29.81,4.75-13,12.21-15.21,24.23-13.5-1,9.77-2.85,19.23-2.54,28.63.14,4.08,4.8,11.49,7.24,11.43,11.32-.31,22.59-2.72,36.32-4.73,30.37,19,63.74,6.35,94.65-1.3l10.29,12.2c2.15-2.77,6.12-5.53,6.13-8.32.09-19.22,14.61-25.58,28.49-35.22-5,29.56-3.29,34.27,12.29,38.19,14.91,3.76,32.64-2.73,36.67-14.79-8.65,1.58-16.51,3.53-24.48,4.36-13.21,1.38-17.58-4.59-13.06-17,6.72-18.4,3.5-22.54-16.33-21.13-1.15.08-2.34-.52-.6-.1,0-16.65.49-32.27-.33-47.83-.21-4.1-4.48-8-6.89-12-3.24,2.87-8.4,5.19-9.39,8.7-5.57,19.7-10.61,39.59-14.92,59.61-4,18.71-10,24.8-30,27.32-.2-14.41-11.8-29.1-26-32-6.35-1.28-10.22,1.39-8.58,8.8,3,13.7-6.5,19.84-16.2,24.72-8.3,4.17-13.9-.36-12.73-9.65.64-5.13,4-10.05,4-15.06,0-5.19-2.62-10.38-4.1-15.56-5.07,1.63-11.08,2.06-15,5.14-7.76,6.07-14.37,13.6-21.46,20.52a26.57,26.57,0,0,1,1.42-14.1c3.46-9.8-.22-14.85-10.16-14C1052.91,363.12,1039.66,365.49,1025,367.56ZM174.15,290.05c-3.69,11.54-7.75,23-11,34.67-5,18-9.85,36.16-13.64,54.48-.83,4,2.27,12.11,5.06,12.87,4.45,1.22,11-.89,15.14-3.81,6.87-4.88,12.5-11.5,19.49-18.2-2.24,9-6.39,17.15-5.75,24.89,1.3,15.77,12.58,4.71,23.22,5.19-8,5.94-13.28,10.18-18.88,13.95-6.5,4.38-14.17,7.44-19.58,12.83-3.13,3.12-2.81,9.69-4,14.71,4.91-.8,11.59.16,14.46-2.7,20.12-20,43.21-35.33,69-46.83,2-.89,3.27-3.45,4.89-5.24L251.07,384l-35.2,14.34,18.83-37c-21,2.07-22.86,24.08-40.08,29.57,2.57-7.77,5.09-13.34,6.13-19.17.89-5,.07-10.36,0-15.56-5.38,1.29-12,1.06-15.87,4.2-7.93,6.36-14.4,14.54-21.48,22-2.18-7.71-2.3-14.61-.42-20.91,6.4-21.36,14-42.37,20-63.82,1.55-5.56-1-12.26-1.63-18.43-6.12,1-12.93.67-18.19,3.35-7.48,3.81-13.82,9.84-21.43,15.51,3-32.3,1.45-33.95-23.51-24.69.69-3.84,1.19-7.16,1.89-10.44,3.57-16.82-4-23.12-20.87-20.61-17.84,2.65-34.93,32.62-32.52,47.32,1.33,8.17,5.6,10.64,12.84,7.95C89.84,293.75,95,282.19,92,268.34c-4.8,5.81-8.89,10.78-14,16.91,2.36-21.88,14.21-34.17,30.36-32.9.38,1.15,1.21,2.4,1.12,3.59a37.17,37.17,0,0,1-1.43,9c-13.59,40.53-27.41,81-40.76,121.58-1.12,3.42.79,7.83,1.29,11.78,3.33-2.48,8.37-4.26,9.72-7.56,12.63-30.69,24.29-61.8,37.07-92.43,3-7.11,9.16-12.87,13.87-19.25l4.07,1.85c-2.65,13.79-5.63,27.53-7.72,41.4-.51,3.44,1.83,7.31,2.86,11,2.8-2.56,7-4.61,8.14-7.77C142.93,307.85,156.57,297.64,174.15,290.05Zm910.4-38.64c-.24-1.49-.49-3-.74-4.47-4.28.24-8.84-.39-12.78.89-10.38,3.4-21.33,6.24-30.54,11.8-22.62,13.65-44.08,16-69,4.27-19.25-9.06-38.77.22-47.48,16-6.45,11.66-1.06,20.63,6.12,28.35,3.06,3.3,12.29,6,14.37,4.15,7-6.33,12.42-14.65,17.68-22.7.68-1-3.07-5-4.76-7.56-2.37,1.78-5.45,3.09-7,5.42-3.27,5-5.74,10.55-8.54,15.88l-5.21-.75c-1.28-5.83-5.45-13.56-3.16-17.09,3.79-5.85,12.09-13,17.88-12.54,17.7,1.51,35.11,6.41,49.49,9.34-4.41,20-8.16,36.37-11.57,52.79-3.34,16.1-5.36,32.54-9.69,48.36-9.5,34.76-47.55,29.45-65.16,7.15,16.75,1.83,33,3.17,42.09-14.49-11.22.79-21.9,4.85-32.65,5-10.46.2-19.71-11.59-32.8-4.79,6.79,22.65,23.34,33.42,44,38.85,29.93,7.88,45.79.9,56.47-28.1,5.89-16,8.44-33.88,9-51,1.2-35,17.56-57.54,49.94-69.39,8.63-3.15,17.15-6.62,25.59-10.22C1079.1,255.26,1081.74,253.15,1084.55,251.41ZM435,393.06c.72-6.29.82-12.6,2.28-18.58,1.89-7.72-.37-10.57-8.29-10.18-14.55.71-25.25,7.39-30.35,20.86-1.85,4.91-2.09,14.39.61,16.14,4.17,2.71,11.53,1,17.45.31,2.25-.27,4.22-2.9,6.32-4.45,8.76,3.53,17.41,4.06,26,4.76,2.43.19,5.7.07,7.08,1.52,8.11,8.55,17.79,6.35,26.95,3.78,12.05-3.39,23.74-8.05,36.2-12.39,7.62,11.4,17.58,17.86,32.53,9.42,1.9-1.07,6.13,1.23,8.93,2.65,16.5,8.34,48.32-6,51.53-24.17-16.12,1.91-27.67,20-48,13.9,6.12-7.42,12.36-12.42,14.85-18.86,1.81-4.7-1.31-11.32-2.24-17.08-5.82,1.39-13.47,1-17,4.61-4.5,4.59-4.74,13.08-8.57,18.69-3.52,5.16-9.35,8.74-14.17,13l-6.61-14.46,18.16-7.48c-5.47-4.33-9.2-7.27-12.91-10.24-2.73-2.18-5.23-5.64-8.23-6.14-1.82-.3-4.29,4.07-6.64,6.14-9,7.93-7,25.17-23,27.3-3.72-19.63-20.93-33.65-34.51-28.25C465.37,383.69,456.52,393.61,435,393.06ZM742.33,412.8l3.77-3.91c-2.27-3.22-5.47-6.14-6.63-9.72-2-6.09-5.64-14-3.41-18.7,15.59-32.69,18.76-68.07,23.59-103,.76-5.47-3.65-14.51-8.31-17.07s-13.33-.44-19,2.25a22,22,0,0,0-10.53,12.73c-5.46,20.94-11.08,42-13.76,63.42a56.63,56.63,0,0,0,6.3,32.6c7.39,13.27,2.2,20.41-7.22,27.58-11.58,8.81-20.61,8.25-32.28-2.69,10.76.07,21.52.94,22.92-10.92-12.45-1.63-24-3.87-35.67-4.35-6-.25-12,3.3-7,11,15.91,24.12,38,34.66,63.27,12.87,2.52-2.18,5-4.39,6.81-6ZM347.48,370c-.13-1.75-.27-3.5-.4-5.25-3.34-.14-6.73-.71-10-.35-6.43.71-12.81,1.9-19.2,2.95-5.35.88-10.68,1.84-16,2.77,2.93,4.88,5.83,9.79,8.82,14.64a16.05,16.05,0,0,0,2.51,3c23.32,22.62,60.74,18.05,73.87-12.58,8.34-19.45,11.61-39.09,11-60-.59-19.91,4.13-24.91,23.28-28.36,17.22-3.1,32.52-10,44.05-24.5-7.2-.12-13.94,1.39-19.46,4.85-18.59,11.63-38,11.84-58.23,6-8.82-2.56-17.78-4.64-26.64-7.05-12.45-3.37-23.36,1-30.51,10.14-4.39,5.6-7.31,16-5.17,22.23,3.37,9.89,14.06,12.61,24.36,10.13a25.88,25.88,0,0,0,12.11-7.07c2.51-2.66,2.91-7.3,4.25-11.07-3.75,1.42-8.19,2-11.11,4.44-5.69,4.71-11.47,10.1-18.1,3.53-7.44-7.37-1.78-13.86,4.4-18.49,3.64-2.72,9-5.65,12.94-5,13.6,2.21,27,6,37.28,8.39-2.09,17.5-4.37,32.69-5.61,48-1.65,20.46-5.26,40.14-20.68,55.11-13.68,13.27-35.47,8.81-44.66-8.52Zm406.6,48.54c19.46-2.38,39.87-2.62,58.78-8.07,10.93-3.15,22.77-11.3,27-25.17a27.05,27.05,0,0,0-13,3.53c-3.94,2.15-7.52,4.95-11.77,7.82-1.37-6.47-2-11.25-3.42-15.8-2.82-9.19-20.77-25-27.55-23.6-13.68,2.83-1.58,14.61-6.57,20.67-.25.3-.08.91-.29,1.27C770.23,391.19,763.17,403.14,754.08,418.57Z" transform="translate(-3.94 -216.92)"/><path d="M1025,367.56c14.67-2.07,27.92-4.44,41.28-5.65,9.94-.89,13.62,4.16,10.16,14A26.57,26.57,0,0,0,1075,390c7.09-6.92,13.7-14.45,21.46-20.52,4-3.08,10-3.51,15-5.14,1.48,5.18,4.1,10.37,4.1,15.56,0,5-3.39,9.93-4,15.06-1.17,9.29,4.43,13.82,12.73,9.65,9.7-4.88,19.24-11,16.2-24.72-1.64-7.41,2.23-10.08,8.58-8.8,14.17,2.86,25.77,17.55,26,32,19.92-2.52,25.94-8.61,30-27.32,4.31-20,9.35-39.91,14.92-59.61,1-3.51,6.15-5.83,9.39-8.7,2.41,4,6.68,7.87,6.89,12,.82,15.56.33,31.18.33,47.83-1.74-.42-.55.18.6.1,19.83-1.41,23,2.73,16.33,21.13-4.52,12.38-.15,18.35,13.06,17,8-.83,15.83-2.78,24.48-4.36-4,12.06-21.76,18.55-36.67,14.79-15.58-3.92-17.24-8.63-12.29-38.19-13.88,9.64-28.4,16-28.49,35.22,0,2.79-4,5.55-6.13,8.32L1197.14,409c-30.91,7.65-64.28,20.29-94.65,1.3-13.73,2-25,4.42-36.32,4.73-2.44.06-7.1-7.35-7.24-11.43-.31-9.4,1.53-18.86,2.54-28.63-12-1.71-19.48.52-24.23,13.5-4,11-12.73,20.58-20.51,29.81-2,2.38-8.36,1.09-12.71,1.48,1.69-3.35,2.66-7.42,5.19-9.91C1020.37,398.77,1030,387.33,1025,367.56Zm119,38.18c.72,1.11,1.44,2.23,2.17,3.34,5.66-3.37,11.61-6.38,16.63-10.52.65-.55-3.45-6.87-6.2-12.14C1151.31,394.56,1147.67,400.15,1144,405.74Z" transform="translate(-3.94 -216.92)"/><path d="M174.15,290.05c-17.58,7.59-31.22,17.8-37.53,35.47-1.12,3.16-5.34,5.21-8.14,7.77-1-3.67-3.37-7.54-2.86-11,2.09-13.87,5.07-27.61,7.72-41.4l-4.07-1.85c-4.71,6.38-10.9,12.14-13.87,19.25C102.62,328.94,91,360.05,78.33,390.74c-1.35,3.3-6.39,5.08-9.72,7.56-.5-3.95-2.41-8.36-1.29-11.78,13.35-40.61,27.17-81,40.76-121.58a37.17,37.17,0,0,0,1.43-9c.09-1.19-.74-2.44-1.12-3.59-16.15-1.27-28,11-30.36,32.9,5.07-6.13,9.16-11.1,14-16.91,3,13.85-2.15,25.41-12.4,29.21-7.24,2.69-11.51.22-12.84-7.95-2.41-14.7,14.68-44.67,32.52-47.32,16.9-2.51,24.44,3.79,20.87,20.61-.7,3.28-1.2,6.6-1.89,10.44,25-9.26,26.54-7.61,23.51,24.69,7.61-5.67,14-11.7,21.43-15.51,5.26-2.68,12.07-2.34,18.19-3.35.65,6.17,3.18,12.87,1.63,18.43-6,21.45-13.62,42.46-20,63.82-1.88,6.3-1.76,13.2.42,20.91,7.08-7.43,13.55-15.61,21.48-22,3.9-3.14,10.49-2.91,15.87-4.2.06,5.2.88,10.53,0,15.56-1,5.83-3.56,11.4-6.13,19.17,17.22-5.49,19.09-27.5,40.08-29.57l-18.83,37L251.07,384l1.52,2.88c-1.62,1.79-2.89,4.35-4.89,5.24-25.83,11.5-48.92,26.8-69,46.83-2.87,2.86-9.55,1.9-14.46,2.7,1.23-5,.91-11.59,4-14.71,5.41-5.39,13.08-8.45,19.58-12.83,5.6-3.77,10.89-8,18.88-13.95-10.64-.48-21.92,10.58-23.22-5.19-.64-7.74,3.51-15.88,5.75-24.89-7,6.7-12.62,13.32-19.49,18.2-4.11,2.92-10.69,5-15.14,3.81-2.79-.76-5.89-8.85-5.06-12.87,3.79-18.32,8.66-36.43,13.64-54.48C166.4,313,170.46,301.59,174.15,290.05Z" transform="translate(-3.94 -216.92)"/><path d="M1084.55,251.41c-2.81,1.74-5.45,3.85-8.46,5.13-8.44,3.6-17,7.07-25.59,10.22-32.38,11.85-48.74,34.39-49.94,69.39-.58,17.14-3.13,35-9,51-10.68,29-26.54,36-56.47,28.1-20.63-5.43-37.18-16.2-44-38.85,13.09-6.8,22.34,5,32.8,4.79,10.75-.2,21.43-4.26,32.65-5-9.09,17.66-25.34,16.32-42.09,14.49,17.61,22.3,55.66,27.61,65.16-7.15,4.33-15.82,6.35-32.26,9.69-48.36,3.41-16.42,7.16-32.76,11.57-52.79-14.38-2.93-31.79-7.83-49.49-9.34-5.79-.5-14.09,6.69-17.88,12.54-2.29,3.53,1.88,11.26,3.16,17.09l5.21.75c2.8-5.33,5.27-10.87,8.54-15.88,1.51-2.33,4.59-3.64,7-5.42,1.69,2.59,5.44,6.52,4.76,7.56-5.26,8.05-10.63,16.37-17.68,22.7-2.08,1.87-11.31-.85-14.37-4.15-7.18-7.72-12.57-16.69-6.12-28.35,8.71-15.73,28.23-25,47.48-16,25,11.75,46.42,9.38,69-4.27,9.21-5.56,20.16-8.4,30.54-11.8,3.94-1.28,8.5-.65,12.78-.89C1084.06,248.43,1084.31,249.92,1084.55,251.41Z" transform="translate(-3.94 -216.92)"/><path d="M435,393.06c21.48.55,30.33-9.37,28.35-29.19,13.58-5.4,30.79,8.62,34.51,28.25,16-2.13,14-19.37,23-27.3,2.35-2.07,4.82-6.44,6.64-6.14,3,.5,5.5,4,8.23,6.14,3.71,3,7.44,5.91,12.91,10.24l-18.16,7.48L537.13,397c4.82-4.27,10.65-7.85,14.17-13,3.83-5.61,4.07-14.1,8.57-18.69,3.55-3.62,11.2-3.22,17-4.61.93,5.76,4.05,12.38,2.24,17.08-2.49,6.44-8.73,11.44-14.85,18.86,20.37,6.14,31.92-12,48-13.9-3.21,18.15-35,32.51-51.53,24.17-2.8-1.42-7-3.72-8.93-2.65-15,8.44-24.91,2-32.53-9.42-12.46,4.34-24.15,9-36.2,12.39-9.16,2.57-18.84,4.77-26.95-3.78-1.38-1.45-4.65-1.33-7.08-1.52-8.63-.7-17.28-1.23-26-4.76-2.1,1.55-4.07,4.18-6.32,4.45-5.92.69-13.28,2.4-17.45-.31-2.7-1.75-2.46-11.23-.61-16.14,5.1-13.47,15.8-20.15,30.35-20.86,7.92-.39,10.18,2.46,8.29,10.18C435.86,380.46,435.76,386.77,435,393.06Zm46.61-16.21-3.61.64L466,395.41l1.73,2.79c5.1-3,11.12-5.18,14.9-9.37C484.44,386.78,482.1,381,481.65,376.85Z" transform="translate(-3.94 -216.92)"/><path d="M742.33,412.8l-17.08-13.91c-1.8,1.57-4.29,3.78-6.81,6-25.23,21.79-47.36,11.25-63.27-12.87-5.06-7.68,1-11.23,7-11,11.64.48,23.22,2.72,35.67,4.35-1.4,11.86-12.16,11-22.92,10.92,11.67,10.94,20.7,11.5,32.28,2.69,9.42-7.17,14.61-14.31,7.22-27.58a56.63,56.63,0,0,1-6.3-32.6c2.68-21.39,8.3-42.48,13.76-63.42a22,22,0,0,1,10.53-12.73c5.65-2.69,14.31-4.8,19-2.25s9.07,11.6,8.31,17.07c-4.83,34.95-8,70.33-23.59,103-2.23,4.68,1.44,12.61,3.41,18.7,1.16,3.58,4.36,6.5,6.63,9.72Zm6.44-142.26-4.39-2.85c-4.77,4.84-12.09,8.91-13.84,14.67-5.17,16.95-9.51,34.42-11.46,52-1.29,11.62,2.08,23.75,3.36,35.66l5.13-.29C741.13,338,745.1,304.29,748.77,270.54Z" transform="translate(-3.94 -216.92)"/><path d="M347.48,370Q334,374,320.56,378c9.18,17.32,31,21.78,44.65,8.51,15.42-15,19-34.65,20.68-55.11,1.24-15.27,3.52-30.46,5.61-48-10.32-2.43-23.68-6.18-37.28-8.39-4-.65-9.3,2.28-12.94,5-6.18,4.63-11.84,11.12-4.4,18.49,6.63,6.57,12.41,1.18,18.1-3.53,2.92-2.42,7.36-3,11.11-4.44-1.34,3.77-1.74,8.41-4.25,11.07a25.88,25.88,0,0,1-12.11,7.07c-10.3,2.48-21-.24-24.36-10.13-2.14-6.27.78-16.63,5.17-22.23,7.15-9.11,18.06-13.51,30.51-10.14,8.86,2.41,17.82,4.49,26.64,7.05,20.25,5.88,39.64,5.67,58.23-6,5.52-3.46,12.26-5,19.46-4.85-11.53,14.49-26.83,21.4-44.05,24.5-19.15,3.45-23.87,8.45-23.28,28.36.61,20.87-2.66,40.51-11,60-13.13,30.63-50.55,35.2-73.87,12.58a16.05,16.05,0,0,1-2.51-3c-3-4.85-5.89-9.76-8.82-14.64,5.34-.93,10.67-1.89,16-2.77,6.39-1.05,12.77-2.24,19.2-2.95,3.28-.36,6.67.21,10,.35C347.21,366.53,347.35,368.28,347.48,370Z" transform="translate(-3.94 -216.92)"/><path d="M754.08,418.57c9.09-15.43,16.15-27.38,23.19-39.35.21-.36,0-1,.29-1.27,5-6.06-7.11-17.84,6.57-20.67,6.78-1.4,24.73,14.41,27.55,23.6,1.4,4.55,2.05,9.33,3.42,15.8,4.25-2.87,7.83-5.67,11.77-7.82a27.05,27.05,0,0,1,13-3.53c-4.26,13.87-16.1,22-27,25.17C794,416,773.54,416.19,754.08,418.57Zm27.42-15.21,1.86,3.7c5.51-3.81,13.77-6.56,15.79-11.73,2.22-5.67-1.33-13.59-2.36-20.53l-4,.41Z" transform="translate(-3.94 -216.92)"/><path class="cls-1" d="M1144,405.74c3.64-5.59,7.28-11.18,12.6-19.32,2.75,5.27,6.85,11.59,6.2,12.14-5,4.14-11,7.15-16.63,10.52C1145.47,408,1144.75,406.85,1144,405.74Z" transform="translate(-3.94 -216.92)"/><path class="cls-1" d="M481.65,376.85c.45,4.11,2.79,9.93,1,12-3.78,4.19-9.8,6.37-14.9,9.37L466,395.41,478,377.49Z" transform="translate(-3.94 -216.92)"/><path class="cls-1" d="M748.77,270.54c-3.67,33.75-7.64,67.44-21.2,99.18l-5.13.29c-1.28-11.91-4.65-24-3.36-35.66,1.95-17.57,6.29-35,11.46-52,1.75-5.76,9.07-9.83,13.84-14.67Z" transform="translate(-3.94 -216.92)"/><path class="cls-1" d="M781.5,403.36l11.31-28.15,4-.41c1,6.94,4.58,14.86,2.36,20.53-2,5.17-10.28,7.92-15.79,11.73Z" transform="translate(-3.94 -216.92)"/></svg>