<svg id="Layer_1" data-name="Layer 1" xmlns="http://www.w3.org/2000/svg" viewBox="0 0 1080 1080"><defs><style>.cls-1{fill:#205985;fill-rule:evenodd;}</style></defs><path class="cls-1" d="M1368.05,0a132,132,0,0,1,132,132v816.1a132,132,0,0,1-132,132H552a132,132,0,0,1-132-132V132A132,132,0,0,1,552,0ZM960,170.86c-100.25,0-112.82.42-152.2,2.22s-66.12,8-89.6,17.16c-24.28,9.43-44.86,22.06-65.38,42.58s-33.15,41.11-42.58,65.38c-9.13,23.48-15.37,50.31-17.16,89.6s-2.22,51.95-2.22,152.2.42,112.82,2.22,152.2,8,66.12,17.16,89.6c9.43,24.27,22,44.86,42.58,65.38s41.1,33.15,65.38,42.58c23.48,9.13,50.31,15.37,89.6,17.16s52,2.22,152.2,2.22,112.82-.42,152.2-2.22,66.12-8,89.6-17.16c24.27-9.43,44.86-22,65.38-42.58s33.15-41.11,42.58-65.38c9.13-23.48,15.37-50.31,17.16-89.6s2.22-52,2.22-152.2-.42-112.82-2.22-152.2-8-66.12-17.16-89.6c-9.43-24.27-22-44.86-42.58-65.38s-41.11-33.15-65.38-42.58c-23.48-9.13-50.31-15.37-89.6-17.16s-52-2.22-152.2-2.22Zm0,66.51c98.56,0,110.24.38,149.16,2.15,36,1.65,55.54,7.66,68.55,12.71,17.23,6.7,29.53,14.7,42.44,27.62s20.92,25.21,27.62,42.44c5,13,11.07,32.56,12.71,68.55,1.77,38.92,2.15,50.6,2.15,149.16s-.38,110.24-2.15,149.16c-1.64,36-7.66,55.54-12.71,68.55-6.7,17.23-14.7,29.53-27.62,42.44s-25.21,20.92-42.44,27.62c-13,5.05-32.56,11.07-68.55,12.71-38.91,1.77-50.59,2.15-149.16,2.15s-110.24-.38-149.16-2.15c-36-1.64-55.54-7.66-68.55-12.71-17.23-6.7-29.53-14.7-42.44-27.62s-20.92-25.21-27.62-42.44c-5.05-13-11.07-32.56-12.71-68.55-1.77-38.92-2.15-50.6-2.15-149.16s.38-110.24,2.15-149.16c1.64-36,7.66-55.54,12.71-68.55,6.7-17.23,14.7-29.53,27.62-42.44s25.21-20.92,42.44-27.62c13-5,32.56-11.06,68.55-12.71,38.92-1.77,50.6-2.15,149.16-2.15Zm0,113.07c-104.69,0-189.56,84.87-189.56,189.56S855.31,729.56,960,729.56,1149.56,644.69,1149.56,540,1064.69,350.44,960,350.44Zm0,312.61a123,123,0,1,1,123-123A123,123,0,0,1,960,663.05ZM1201.35,343a44.3,44.3,0,1,1-44.3-44.29,44.3,44.3,0,0,1,44.3,44.29Z" transform="translate(-420 0)"/></svg>