<svg id="Layer_1" data-name="Layer 1" xmlns="http://www.w3.org/2000/svg" viewBox="0 0 1080 1080"><defs><style>.cls-1{fill:#205985;fill-rule:evenodd;}</style></defs><path class="cls-1" d="M1368.05,0a132,132,0,0,1,132,132v816.1a132,132,0,0,1-132,132H552a132,132,0,0,1-132-132V132A132,132,0,0,1,552,0ZM758.47,892.85V416.73H600.18V892.85Zm570.67,0v-273c0-146.25-78.08-214.29-182.21-214.29-84,0-121.57,46.18-142.63,78.61V416.73H846.05c2.1,44.68,0,476.12,0,476.12H1004.3V627c0-14.23,1-28.46,5.22-38.63,11.42-28.42,37.47-57.87,81.2-57.87,57.23,0,80.17,43.68,80.17,107.66V892.85ZM680.4,187.15c-54.16,0-89.54,35.6-89.54,82.27,0,45.68,34.31,82.27,87.44,82.27h1c55.2,0,89.55-36.59,89.55-82.27-1-46.6-34.26-82.17-88.47-82.27Z" transform="translate(-420 0)"/></svg>