<svg id="Layer_1" data-name="Layer 1" xmlns="http://www.w3.org/2000/svg" viewBox="0 0 1080 1080"><defs><style>.cls-1{fill:#205985;fill-rule:evenodd;}</style></defs><path class="cls-1" d="M1368.05,0a132,132,0,0,1,132,132v816.1a132,132,0,0,1-132,132H552a132,132,0,0,1-132-132V132A132,132,0,0,1,552,0Zm-7.27,560.33a87.64,87.64,0,0,0-148.54-63.1c-60-43.26-142.57-71.21-234.57-74.41l40-188,130.54,27.75a62.76,62.76,0,1,0,6.42-30.66l-145.77-31A15.69,15.69,0,0,0,990.23,213L945.61,422.75c-93.35,2.59-177.28,30.58-238,74.32A87.67,87.67,0,1,0,611,640.31,173.34,173.34,0,0,0,609,666.84C609,801.79,766,911.18,959.81,911.18s350.86-109.39,350.86-244.34a174.71,174.71,0,0,0-2.06-26.35,87.69,87.69,0,0,0,52.17-80.16Zm-252,228.22c-42.76,42.7-124.7,46-148.79,46s-106.05-3.32-148.75-46a16.24,16.24,0,0,1,23-23c26.95,27,84.6,36.53,125.79,36.53s98.85-9.57,125.84-36.54a16.24,16.24,0,0,1,23,23Zm-11-102.9A62.66,62.66,0,1,1,1160.39,623,62.73,62.73,0,0,1,1097.73,685.65ZM759.42,623a62.65,62.65,0,1,1,62.68,62.63A62.74,62.74,0,0,1,759.42,623Z" transform="translate(-420 0)"/></svg>