<svg id="Layer_1" data-name="Layer 1" xmlns="http://www.w3.org/2000/svg" viewBox="0 0 1080 1080"><defs><style>.cls-1{fill:#205985;fill-rule:evenodd;}</style></defs><path class="cls-1" d="M1368.05,0a132,132,0,0,1,132,132v816.1a132,132,0,0,1-132,132H552a132,132,0,0,1-132-132V132A132,132,0,0,1,552,0Zm-44.23,370.47a95.08,95.08,0,0,0-67.13-67.13C1197.46,287.47,960,287.47,960,287.47s-237.46,0-296.69,15.87a95.08,95.08,0,0,0-67.13,67.13c-15.87,59.22-15.87,182.78-15.87,182.78s0,123.56,15.87,182.77a95.08,95.08,0,0,0,67.13,67.14C722.54,819,960,819,960,819s237.46,0,296.69-15.87A95.08,95.08,0,0,0,1323.82,736c15.87-59.21,15.87-182.77,15.87-182.77S1339.69,429.69,1323.82,370.47ZM884.06,667.16V439.34l197.29,113.91L884.06,667.16Z" transform="translate(-420 0)"/></svg>